<?xml version="1.0" encoding="UTF-8"?>
<svg id="Capa_1" data-name="Capa 1" xmlns="http://www.w3.org/2000/svg" viewBox="0 0 949.24 872.88">
  <defs>
    <style>
      .cls-1 {
        fill: #cb0076;
      }
    </style>
  </defs>
  <path class="cls-1" d="M364.2,826.03c22.31,3,48.45,4.12,70.82,2.64l8.03-.53c120.1-7.94,230.37-70.18,299.89-166.68,101.04-140.24,96.15-329.63-11.36-464.75-73.36-92.2-185.04-148.88-304.2-152.47-14.59-.44-28.85-.47-43.64,1l-21.56,2.14c-4.69.47-8.85-3.41-9.71-7.14-1.02-4.41,1.11-9.21,5.92-11.03C400.37,13.3,444.02,3.73,488.97,1.1l13.19-.77c7.19-.42,14.73-.46,21.89-.03l12.25.73c45.79,2.72,90.47,11.88,133.48,28.44,58.82,22.65,111.84,57.93,155.64,102.9,76.54,78.58,120.75,182.83,123.66,292.48,3.92,148.08-66.86,286.12-187.4,370.09-118.07,82.25-269.78,100.84-404.03,48.89-4.45-1.72-6.2-7.05-5.04-11.17,1.38-4.89,6.23-7.35,11.58-6.63Z"/>
  <path class="cls-1" d="M566.24,600.14c3.59-4.06,9.61-3.18,13.11-.71,3.71,2.61,4.93,8.79,2.2,12.88-70.68,106.19-196.75,159.17-321.12,136.57C115.01,722.47,6.63,598.06.29,450.49c-3.68-85.58,27.18-168.83,85.95-231.24,79.46-84.38,198.24-119.05,310.76-89.89,75.72,19.62,141.89,66.83,185.06,132.36,2.71,4.12.16,9.45-2.65,11.93-3.28,2.9-9.35,3.23-12.74-.46-10.41-11.31-21.66-21.73-33.17-30.78-99.59-78.24-241.17-67.15-328.24,22.52-91.18,93.91-93.48,243.67-3.13,339.96,14.42,15.37,30.95,29.08,49.05,40.51,101.74,64.27,235.25,44.98,315.07-45.27Z"/>
  <path class="cls-1" d="M328.13,443.33c2.65,15.49-4.38,29.85-18.84,35.57-5.07,2.01-11.38,3.6-17.09,3.61l-41.76.08-.03-64.5,38.87.08c5.81.01,12.29,1.63,17.88,2.63,11.23,3.06,18.94,10.69,20.97,22.54ZM320.01,452.96c1.03-8.73-2.1-17.58-9.76-22.3-5.8-3.57-13.17-5.04-20.06-5.05l-31.37-.02-.03,49.21,28.37.18c14.95.1,30.93-5.79,32.85-22.02Z"/>
  <path class="cls-1" d="M658.78,452.91l-52.72.05-.04,22.08,60.36-.03.17,7.61-68.85.06-.18-48.74c-.02-5.47.05-10.36.47-15.6l33.15-.38,33.86.09-.02,7.55-58.94.04.02,20.35,52.69.07.02,6.86Z"/>
  <path class="cls-1" d="M496.07,482.38l-8.55.19-58.12-53.4-.28,53.52h-8.46s-.05-64.15-.05-64.15c3.11-.21,6.35-.24,9.05,0l57.57,52.27.37-52.08,8.41-.35.07,63.99Z"/>
  <path class="cls-1" d="M473.64,379.58l-47.29.41c.94,8.95.92,15.36.52,23.81l-8.6.05-.02-63.89,53.9.12c5.7.01,11.02,3.11,15.29,6.46,5.65,7.89,6.53,18.83-.29,26.55-2.62,2.96-8.79,6.44-13.51,6.48ZM470.55,372.08c7.97-.02,13.02-5.97,12.81-12.69-.2-6.26-5.12-11.7-12.34-11.71l-43.62-.05c-1.43,2.9-.76,5.63-.64,8.31l.77,16.27,43.01-.13Z"/>
  <path class="cls-1" d="M392.66,466.55l-44.95.03-8.97,16.19-8.53-.71,34.55-63.49c3.7-.24,7.15-.26,10.74-.03l35.34,63.57-9.03.88-9.13-16.44ZM388.89,458.94l-18.83-33.22-18.89,33.53,37.72-.3Z"/>
  <path class="cls-1" d="M389.85,387.88l-44.51-.08-8.76,15.86c-2.75.46-6.24.37-8.83-.22l34.51-63.23h10.71s35.4,63.47,35.4,63.47l-9.25.35-9.27-16.15ZM386.66,380.9l-19.18-33.52-18.93,33.63,38.1-.11Z"/>
  <path class="cls-1" d="M647.61,387.92l-44.76-.17-8.64,15.65c-2.58.62-5.94.61-9.02.16l34.41-63.2c3.71-.27,7.3-.26,10.96.04l35.08,63.1-9.3.47-8.74-16.05ZM644.03,380.87l-19.07-33.6-19.06,33.82,38.13-.22Z"/>
  <path class="cls-1" d="M266.5,392.56c13.41,10.06,40.58,8.83,48.2-8.38l6.71,3.41c-3.58,9.18-11.47,14.85-21.32,17.18-22.08,5.23-48.9-2.94-51.53-28.93-1.45-14.33,5.49-27.45,18.86-33.55,18.63-8.5,44.32-5.13,54.54,14.45l-6.61,4.03c-5.77-11.5-17.12-15.49-29.23-15.3-11.75.18-22.98,5.65-27.2,16.25s-1.9,23.76,7.56,30.85Z"/>
  <path class="cls-1" d="M519.16,453.11c1.39,16.69,15.73,24.5,31.94,24.27,11.05-.15,20.9-4.49,25.75-15.04l7.38,3.8c-9.89,19.56-35.86,22.14-54.07,14.76-11.01-4.47-17.77-14.01-19.23-25.65-1.51-12.06,2.55-23.67,12.7-30.9,18.43-13.12,49.96-10.67,60.43,10.82-1.33,1.66-4.94,3.33-6.96,2.96-9.91-16.53-33.64-18.5-48.4-7.75-7.18,5.23-10.27,14.07-9.55,22.72Z"/>
  <path class="cls-1" d="M380.27,550.84c13.36,8.42,38.91,7.1,46.2-9.86l7.41,3.09c-8.54,21.09-39.81,22.83-56.19,14.2-10.65-5.62-16.84-15.27-17.39-27.35-.63-13.81,6.23-25.93,19.04-31.72,17.84-8.07,44.01-5.54,54.77,14.44l-7.02,3.66c-8.52-16.27-31.48-18.7-45.9-10.55-8.25,4.66-12.21,13.07-12.39,21.67s3.54,17.42,11.46,22.42Z"/>
  <path class="cls-1" d="M316.44,497.55c2.87-.41,5.69-.51,9.48-.52l-36.07,63.6-9.03.33-36.52-63.74,9.26-.37,31.87,55.56,31.01-54.85Z"/>
  <polygon class="cls-1" points="559.7 403.69 551.44 403.75 551.4 347.78 522.26 347.69 522.2 340 588.93 340.05 589.06 347.69 559.72 347.78 559.7 403.69"/>
  <path class="cls-1" d="M737.95,396.02c1.32,2.23,1.29,5.44.15,7.93l-62.55.02.03-63.9,8.31.2.04,55.73,54.02.02Z"/>
  <polygon class="cls-1" points="511.05 404.39 502.25 404.57 502.26 340.25 511.01 340.07 511.05 404.39"/>
  <rect class="cls-1" x="336.17" y="496.89" width="8.91" height="65.01" transform="translate(-.76 .49) rotate(-.08)"/>
</svg>