<?xml version="1.0" encoding="UTF-8"?>
<svg id="Capa_1" data-name="Capa 1" xmlns="http://www.w3.org/2000/svg" viewBox="0 0 834.48 186.43">
  <defs>
    <style>
      .cls-1 {
        fill: #fff;
      }
    </style>
  </defs>
  <path class="cls-1" d="M77.78,176.42c4.76.64,10.35.88,15.13.56l1.71-.11c25.65-1.7,49.2-14.99,64.05-35.6,21.58-29.95,20.54-70.4-2.43-99.26-15.67-19.69-39.52-31.8-64.97-32.56-3.12-.09-6.16-.1-9.32.21l-4.6.46c-1,.1-1.89-.73-2.07-1.53-.22-.94.24-1.97,1.26-2.36C85.51,2.84,94.83.8,104.43.24l2.82-.16c1.54-.09,3.15-.1,4.67,0l2.62.16c9.78.58,19.32,2.54,28.51,6.07,12.56,4.84,23.89,12.37,33.24,21.98,16.35,16.78,25.79,39.05,26.41,62.47.84,31.63-14.28,61.11-40.02,79.04-25.22,17.57-57.62,21.54-86.29,10.44-.95-.37-1.32-1.51-1.08-2.39.3-1.04,1.33-1.57,2.47-1.42Z"/>
  <path class="cls-1" d="M120.94,128.17c.77-.87,2.05-.68,2.8-.15.79.56,1.05,1.88.47,2.75-15.1,22.68-42.02,33.99-68.58,29.17C24.56,154.3,1.42,127.73.06,96.21c-.79-18.28,5.8-36.06,18.36-49.39,16.97-18.02,42.34-25.43,66.37-19.2,16.17,4.19,30.31,14.27,39.52,28.27.58.88.03,2.02-.57,2.55-.7.62-2,.69-2.72-.1-2.22-2.42-4.63-4.64-7.09-6.57-21.27-16.71-51.51-14.34-70.1,4.81-19.47,20.06-19.96,52.04-.67,72.61,3.08,3.28,6.61,6.21,10.48,8.65,21.73,13.73,50.24,9.61,67.29-9.67Z"/>
  <path class="cls-1" d="M541.64,88.75c1.34,7.85-2.22,15.12-9.54,18.01-2.57,1.02-5.76,1.82-8.65,1.83l-21.15.04-.02-32.66,19.68.04c2.94,0,6.22.82,9.05,1.33,5.68,1.55,9.59,5.41,10.62,11.41ZM537.52,93.63c.52-4.42-1.06-8.9-4.94-11.29-2.94-1.81-6.67-2.55-10.16-2.56h-15.88s-.02,24.91-.02,24.91l14.37.09c7.57.05,15.66-2.93,16.63-11.15Z"/>
  <path class="cls-1" d="M709.07,93.6l-26.7.03-.02,11.18h30.56s.09,3.84.09,3.84l-34.87.03-.09-24.68c-.01-2.77.02-5.24.24-7.9l16.79-.19,17.15.04v3.82s-29.86.02-29.86.02v10.3s26.69.04,26.69.04v3.47Z"/>
  <path class="cls-1" d="M626.68,108.52l-4.33.1-29.43-27.04-.14,27.1h-4.28s-.02-32.48-.02-32.48c1.57-.1,3.22-.12,4.58,0l29.15,26.47.19-26.37,4.26-.18.04,32.4Z"/>
  <path class="cls-1" d="M342.44,96.89l-23.95.21c.48,4.53.47,7.78.27,12.05l-4.36.03v-32.35s27.28.06,27.28.06c2.89,0,5.58,1.58,7.74,3.27,2.86,3.99,3.31,9.54-.15,13.45-1.33,1.5-4.45,3.26-6.84,3.28ZM340.88,93.09c4.04-.01,6.59-3.02,6.49-6.43-.1-3.17-2.59-5.92-6.25-5.93l-22.09-.02c-.73,1.47-.39,2.85-.32,4.21l.39,8.24,21.78-.07Z"/>
  <path class="cls-1" d="M574.31,100.51l-22.76.02-4.54,8.2-4.32-.36,17.49-32.15c1.88-.12,3.62-.13,5.44-.02l17.89,32.19-4.58.44-4.62-8.33ZM572.41,96.66l-9.54-16.82-9.57,16.98,19.1-.15Z"/>
  <path class="cls-1" d="M300.02,101.09l-22.54-.04-4.43,8.03c-1.39.23-3.16.19-4.47-.11l17.47-32.02h5.42s17.93,32.14,17.93,32.14l-4.68.18-4.69-8.18ZM298.4,97.56l-9.71-16.98-9.58,17.03,19.29-.06Z"/>
  <path class="cls-1" d="M430.54,101.11l-22.66-.09-4.37,7.93c-1.31.31-3.01.31-4.57.08l17.43-32c1.88-.13,3.7-.13,5.55.02l17.77,31.95-4.71.24-4.43-8.13ZM428.72,97.54l-9.66-17.02-9.65,17.13,19.31-.11Z"/>
  <path class="cls-1" d="M237.55,103.46c6.79,5.1,20.55,4.47,24.41-4.24l3.4,1.72c-1.81,4.65-5.81,7.52-10.79,8.7-11.18,2.65-24.76-1.49-26.09-14.65-.73-7.25,2.78-13.9,9.55-16.99,9.43-4.3,22.44-2.6,27.62,7.32l-3.34,2.04c-2.92-5.82-8.67-7.84-14.8-7.75s-11.64,2.86-13.77,8.23-.96,12.03,3.83,15.62Z"/>
  <path class="cls-1" d="M638.37,93.7c.7,8.45,7.96,12.4,16.18,12.29,5.59-.08,10.58-2.27,13.04-7.62l3.74,1.93c-5.01,9.9-18.16,11.21-27.38,7.47-5.58-2.26-9-7.09-9.74-12.99-.76-6.11,1.29-11.99,6.43-15.65,9.33-6.65,25.3-5.4,30.6,5.48-.67.84-2.5,1.68-3.52,1.5-5.02-8.37-17.04-9.37-24.51-3.92-3.64,2.65-5.2,7.13-4.83,11.51Z"/>
  <path class="cls-1" d="M807.21,103.32c6.77,4.27,19.7,3.6,23.4-4.99l3.75,1.56c-4.32,10.68-20.16,11.56-28.45,7.19-5.39-2.84-8.53-7.73-8.8-13.85-.32-6.99,3.15-13.13,9.64-16.06,9.04-4.08,22.29-2.8,27.73,7.31l-3.55,1.85c-4.31-8.24-15.94-9.47-23.24-5.34-4.18,2.36-6.18,6.62-6.27,10.97-.1,4.52,1.79,8.82,5.8,11.35Z"/>
  <path class="cls-1" d="M774.89,76.33c1.45-.21,2.88-.26,4.8-.27l-18.26,32.21-4.57.17-18.5-32.28,4.69-.19,16.14,28.13,15.7-27.78Z"/>
  <polygon class="cls-1" points="386.03 109.1 381.84 109.13 381.82 80.79 367.06 80.74 367.03 76.85 400.82 76.87 400.89 80.74 386.03 80.79 386.03 109.1"/>
  <path class="cls-1" d="M476.29,105.21c.67,1.13.65,2.75.08,4.01h-31.67s.01-32.34.01-32.34l4.21.1.02,28.22h27.36Z"/>
  <polygon class="cls-1" points="361.39 109.45 356.93 109.54 356.94 76.97 361.37 76.88 361.39 109.45"/>
  <rect class="cls-1" x="784.88" y="76" width="4.51" height="32.92" transform="translate(-.13 1.14) rotate(-.08)"/>
</svg>